<svg aria-hidden="true" style="position:absolute;width:0;height:0" xmlns="http://www.w3.org/2000/svg" overflow="hidden">
    <defs>
        <symbol id="icon-facebook-svgrepo-com" viewBox="0 0 32 32">
            <path fill="var(--color1, #3f729b)" d="M16 0c8.837 0 16 7.164 16 16 0 8.837-7.163 16-16 16S0 24.837 0 16C0 7.164 7.163 0 16 0z"/>
            <path fill="var(--color2, #fff)" d="M17.948 11.015h2.062V7.969h-2.424v.011c-2.937.104-3.539 1.755-3.592 3.489h-.006v1.521h-2v2.983h2v7.996h3.014v-7.996h2.469l.477-2.983h-2.945v-.919c0-.586.39-1.056.945-1.056z"/>
        </symbol>
        <symbol id="icon-instagram-svgrepo-com" viewBox="0 0 32 32">
            <path fill="var(--color3, #3f729b)" d="M16 0c8.836 0 16 7.164 16 16s-7.164 16-16 16S0 24.836 0 16 7.163 0 16 0z"/>
            <path fill="var(--color2, #fff)" d="M21.522 6.998H10.477a3.483 3.483 0 00-3.479 3.479v11.046a3.483 3.483 0 003.479 3.479h11.046a3.483 3.483 0 003.479-3.479V10.477a3.484 3.484 0 00-3.48-3.479zm1.096 2.013l.394-.001v2.988l-3.01.01-.01-2.988 2.626-.009zM16 12.988c2.497 0 3.012 2.344 3.012 3.013 0 1.659-1.352 3.011-3.012 3.011s-3.012-1.352-3.012-3.011c-.001-.669.515-3.013 3.012-3.013zm7.029 8.317c0 .951-.773 1.725-1.726 1.725h-10.64a1.727 1.727 0 01-1.726-1.725v-7.309h2.5c-.232.571-.363 1.351-.363 2.005 0 2.714 2.208 4.923 4.923 4.923s4.922-2.209 4.922-4.923c0-.654-.131-1.434-.362-2.005h2.47v7.309h.002z"/>
        </symbol>
        <symbol id="icon-linkedin-svgrepo-com" viewBox="0 0 32 32">
            <path fill="var(--color4, #3f729b)" d="M16 0c8.837 0 16 7.164 16 16s-7.163 16-16 16S0 24.836 0 16 7.163 0 16 0z"/>
            <path fill="var(--color2, #fff)" d="M9.016 21.984h2.996v-9.986H9.016v9.986zm11.672-10.332c-1.454 0-2.755.531-3.678 1.703v-1.39h-3.007v10.019h3.007v-5.418c0-1.145 1.049-2.262 2.363-2.262s1.638 1.117 1.638 2.234v5.445h2.996v-5.668c0-3.937-1.864-4.663-3.319-4.663zM10.5 11a1.5 1.5 0 10-.001-3.001A1.5 1.5 0 0010.5 11z"/>
        </symbol>
    </defs>
</svg>